<mxfile host="app.diagrams.net" modified="2022-01-26T03:37:37.940Z" agent="5.0 (Macintosh; Intel Mac OS X 10_15_7) AppleWebKit/537.36 (KHTML, like Gecko) Chrome/97.0.4692.99 Safari/537.36" etag="B-Vvj1gCklGkBYTNvXiA" version="16.4.5" type="github">
  <diagram id="BjJCEaG1Eu9LETjk4x0T" name="Page-1">
    <mxGraphModel dx="786" dy="489" grid="1" gridSize="10" guides="1" tooltips="1" connect="1" arrows="1" fold="1" page="1" pageScale="1" pageWidth="850" pageHeight="1100" math="0" shadow="0">
      <root>
        <mxCell id="0" />
        <mxCell id="1" parent="0" />
        <mxCell id="Z-CEuAfiOlP3f1oZjAxQ-1" value="Mobile devices" style="ellipse;whiteSpace=wrap;html=1;aspect=fixed;" vertex="1" parent="1">
          <mxGeometry x="300" y="380" width="80" height="80" as="geometry" />
        </mxCell>
        <mxCell id="Z-CEuAfiOlP3f1oZjAxQ-2" value="Backend server" style="whiteSpace=wrap;html=1;aspect=fixed;" vertex="1" parent="1">
          <mxGeometry x="300" y="150" width="80" height="80" as="geometry" />
        </mxCell>
        <mxCell id="Z-CEuAfiOlP3f1oZjAxQ-3" value="Nium APIs server" style="shape=document;whiteSpace=wrap;html=1;boundedLbl=1;" vertex="1" parent="1">
          <mxGeometry x="540" y="30" width="120" height="80" as="geometry" />
        </mxCell>
        <mxCell id="Z-CEuAfiOlP3f1oZjAxQ-4" value="" style="endArrow=classic;html=1;rounded=0;entryX=0.925;entryY=1.063;entryDx=0;entryDy=0;entryPerimeter=0;" edge="1" parent="1" target="Z-CEuAfiOlP3f1oZjAxQ-2">
          <mxGeometry width="50" height="50" relative="1" as="geometry">
            <mxPoint x="374" y="390" as="sourcePoint" />
            <mxPoint x="430" y="220" as="targetPoint" />
          </mxGeometry>
        </mxCell>
        <mxCell id="Z-CEuAfiOlP3f1oZjAxQ-5" value="submit data that included user credentials&lt;br&gt;and user infomation (&lt;font color=&quot;#ff0000&quot;&gt;STEP 1&lt;/font&gt;)" style="text;html=1;align=center;verticalAlign=middle;resizable=0;points=[];autosize=1;strokeColor=none;fillColor=none;" vertex="1" parent="1">
          <mxGeometry x="380" y="285" width="240" height="30" as="geometry" />
        </mxCell>
        <mxCell id="Z-CEuAfiOlP3f1oZjAxQ-6" value="" style="endArrow=classic;html=1;rounded=0;exitX=0.75;exitY=0;exitDx=0;exitDy=0;entryX=0;entryY=0.25;entryDx=0;entryDy=0;" edge="1" parent="1" source="Z-CEuAfiOlP3f1oZjAxQ-2" target="Z-CEuAfiOlP3f1oZjAxQ-3">
          <mxGeometry width="50" height="50" relative="1" as="geometry">
            <mxPoint x="380" y="260" as="sourcePoint" />
            <mxPoint x="430" y="210" as="targetPoint" />
          </mxGeometry>
        </mxCell>
        <mxCell id="Z-CEuAfiOlP3f1oZjAxQ-7" value="Backend use that information&lt;br&gt;to create customer by Nium API&lt;br&gt;(&lt;font color=&quot;#ff0000&quot;&gt;STEP 2&lt;/font&gt;)" style="text;html=1;align=center;verticalAlign=middle;resizable=0;points=[];autosize=1;strokeColor=none;fillColor=none;" vertex="1" parent="1">
          <mxGeometry x="290" y="40" width="180" height="50" as="geometry" />
        </mxCell>
        <mxCell id="Z-CEuAfiOlP3f1oZjAxQ-8" value="" style="endArrow=classic;html=1;rounded=0;entryX=1;entryY=0.75;entryDx=0;entryDy=0;" edge="1" parent="1" source="Z-CEuAfiOlP3f1oZjAxQ-3" target="Z-CEuAfiOlP3f1oZjAxQ-2">
          <mxGeometry width="50" height="50" relative="1" as="geometry">
            <mxPoint x="380" y="240" as="sourcePoint" />
            <mxPoint x="430" y="190" as="targetPoint" />
          </mxGeometry>
        </mxCell>
        <mxCell id="Z-CEuAfiOlP3f1oZjAxQ-9" value="If everything ok, the customer has created&lt;br&gt;and Nium return the customer data and &lt;br&gt;success code as well (&lt;font color=&quot;#ff0000&quot;&gt;STEP 3&lt;/font&gt;)" style="text;html=1;align=center;verticalAlign=middle;resizable=0;points=[];autosize=1;strokeColor=none;fillColor=none;" vertex="1" parent="1">
          <mxGeometry x="470" y="150" width="240" height="50" as="geometry" />
        </mxCell>
        <mxCell id="Z-CEuAfiOlP3f1oZjAxQ-10" value="our database" style="shape=cylinder3;whiteSpace=wrap;html=1;boundedLbl=1;backgroundOutline=1;size=15;" vertex="1" parent="1">
          <mxGeometry x="10" y="150" width="60" height="80" as="geometry" />
        </mxCell>
        <mxCell id="Z-CEuAfiOlP3f1oZjAxQ-11" value="" style="endArrow=classic;html=1;rounded=0;" edge="1" parent="1" source="Z-CEuAfiOlP3f1oZjAxQ-2" target="Z-CEuAfiOlP3f1oZjAxQ-10">
          <mxGeometry width="50" height="50" relative="1" as="geometry">
            <mxPoint x="450" y="290" as="sourcePoint" />
            <mxPoint x="500" y="240" as="targetPoint" />
          </mxGeometry>
        </mxCell>
        <mxCell id="Z-CEuAfiOlP3f1oZjAxQ-12" value="Save user information to our database&lt;br&gt;Generate the JWT token for user that&lt;br&gt;help the user login the app&lt;br&gt;(&lt;font color=&quot;#ff0000&quot;&gt;STEP 4&lt;/font&gt;)" style="text;html=1;align=center;verticalAlign=middle;resizable=0;points=[];autosize=1;strokeColor=none;fillColor=none;" vertex="1" parent="1">
          <mxGeometry x="80" y="195" width="220" height="60" as="geometry" />
        </mxCell>
        <mxCell id="Z-CEuAfiOlP3f1oZjAxQ-13" value="" style="endArrow=classic;html=1;rounded=0;exitX=0.388;exitY=0.988;exitDx=0;exitDy=0;exitPerimeter=0;entryX=0.375;entryY=0;entryDx=0;entryDy=0;entryPerimeter=0;" edge="1" parent="1" source="Z-CEuAfiOlP3f1oZjAxQ-2" target="Z-CEuAfiOlP3f1oZjAxQ-1">
          <mxGeometry width="50" height="50" relative="1" as="geometry">
            <mxPoint x="260" y="280" as="sourcePoint" />
            <mxPoint x="310" y="230" as="targetPoint" />
          </mxGeometry>
        </mxCell>
        <mxCell id="Z-CEuAfiOlP3f1oZjAxQ-14" value="Return the JWT token&lt;br&gt;(&lt;font color=&quot;#ff3333&quot;&gt;STEP 5&lt;/font&gt;)" style="text;html=1;align=center;verticalAlign=middle;resizable=0;points=[];autosize=1;strokeColor=none;fillColor=none;" vertex="1" parent="1">
          <mxGeometry x="200" y="310" width="130" height="30" as="geometry" />
        </mxCell>
      </root>
    </mxGraphModel>
  </diagram>
</mxfile>
